<?xml version="1.0" encoding="UTF-8" standalone="no"?>
<svg
   viewBox="0 0 400 110.11333"
   width="400"
   height="110.11333"
   version="1.1"
   id="svg12"
   sodipodi:docname="case.svg"
   inkscape:version="1.2.1 (9c6d41e410, 2022-07-14)"
   xmlns:inkscape="http://www.inkscape.org/namespaces/inkscape"
   xmlns:sodipodi="http://sodipodi.sourceforge.net/DTD/sodipodi-0.dtd"
   xmlns="http://www.w3.org/2000/svg"
   xmlns:svg="http://www.w3.org/2000/svg">
  <defs
     id="defs16" />
  <sodipodi:namedview
     id="namedview14"
     pagecolor="#505050"
     bordercolor="#ffffff"
     borderopacity="1"
     inkscape:showpageshadow="0"
     inkscape:pageopacity="0"
     inkscape:pagecheckerboard="1"
     inkscape:deskcolor="#505050"
     showgrid="false"
     inkscape:zoom="0.4956"
     inkscape:cx="1252.0178"
     inkscape:cy="343.01856"
     inkscape:window-width="1920"
     inkscape:window-height="1017"
     inkscape:window-x="-8"
     inkscape:window-y="-8"
     inkscape:window-maximized="1"
     inkscape:current-layer="svg12" />
  <g
     clip-rule="evenodd"
     fill-rule="evenodd"
     id="g10"
     transform="scale(0.55555556)">
    <path
       d="m 628.989,33.37 h -36.406 l -25.282,97.077 h 36.407 l 7.077,-27.302 c 1.012,-6.065 6.065,-5.056 6.065,-5.056 l 8.089,-32.359 h -5.052 z m 54.607,0 -7.081,27.303 c -1.012,6.067 -6.065,5.057 -6.065,5.057 l -8.091,32.359 h 5.053 l -9.097,32.359 h 36.402 L 720,33.37 Z"
       fill="#231f20"
       id="path2" />
    <path
       d="m 649.214,130.448 25.28,-97.078 h -36.406 l -25.281,97.078 z M 675.504,28.313 683.596,0 H 647.188 L 639.1,28.313 Z M 44.496,145.619 0,198.204 h 702.809 l 14.157,-52.585 z"
       fill="#bf3627"
       id="path4" />
    <g
       fill="#231f20"
       id="g8">
      <path
         d="m 130.449,75.843 h 38.426 c 0,0 12.135,-47.53 -50.561,-47.53 -56.63,0 -71.798,44.497 -71.798,58.654 -1.012,1.01 -6.069,46.512 56.631,46.512 51.57,0 61.683,-38.423 61.683,-38.423 h -40.447 c 0,0 -6.07,10.113 -19.212,10.113 -12.138,0 -20.228,-9.103 -16.183,-23.26 4.044,-12.134 16.183,-22.248 29.325,-22.248 12.136,10e-4 13.148,11.125 12.136,16.182 z M 426.74,33.37 h 107.192 l -7.077,27.304 h -66.744 l -2.02,9.102 h 66.74 l -6.07,24.268 H 452.02 l -2.02,8.093 h 65.729 l -7.077,28.311 H 400.447 Z m -230.56,97.078 h -45.504 l 73.818,-97.077 h 40.452 l 19.211,98.093 h -44.495 l -1.008,-8.089 h -36.408 z m 19.212,-27.303 h 21.236 l -2.025,-27.302 z m 191.124,-36.404 -40.447,-1.01 v -4.044 c -2.023,-4.045 -5.057,-6.07 -12.138,-6.07 -10.11,0 -13.148,2.025 -13.148,5.057 0,2.023 2.025,4.045 8.091,6.067 6.069,2.023 25.285,5.057 35.394,9.102 12.134,4.044 17.191,10.111 16.179,21.237 0,0 1.012,17.186 -18.199,27.301 -20.224,10.114 -41.465,9.099 -41.465,9.099 0,0 -30.333,-1.008 -43.479,-10.105 C 284.156,112.244 286.182,95.057 285.17,95.057 h 42.471 c 0,0 -2.024,13.147 16.179,13.147 12.134,0 13.147,-4.049 14.159,-5.058 0,-2.024 0,-3.033 -5.057,-5.056 -5.057,-1.009 -38.427,-10.112 -44.496,-14.157 -3.034,-3.033 -11.122,-9.102 -11.122,-20.226 1.008,-15.167 18.203,-34.38 55.619,-33.369 37.414,0 46.516,13.145 47.524,14.157 1.012,1.01 7.082,8.089 6.069,22.246 z"
         id="path6" />
    </g>
  </g>
</svg>
