<?xml version="1.0" encoding="UTF-8" standalone="no"?>
<svg
   width="400"
   height="87.036934"
   viewBox="0 0 400 87.036934"
   fill="none"
   version="1.1"
   id="svg22"
   sodipodi:docname="cynkomet.svg"
   inkscape:version="1.2.1 (9c6d41e410, 2022-07-14)"
   xmlns:inkscape="http://www.inkscape.org/namespaces/inkscape"
   xmlns:sodipodi="http://sodipodi.sourceforge.net/DTD/sodipodi-0.dtd"
   xmlns="http://www.w3.org/2000/svg"
   xmlns:svg="http://www.w3.org/2000/svg">
  <defs
     id="defs26" />
  <sodipodi:namedview
     id="namedview24"
     pagecolor="#505050"
     bordercolor="#ffffff"
     borderopacity="1"
     inkscape:showpageshadow="0"
     inkscape:pageopacity="0"
     inkscape:pagecheckerboard="1"
     inkscape:deskcolor="#505050"
     showgrid="false"
     inkscape:zoom="1.4340278"
     inkscape:cx="-17.782082"
     inkscape:cy="23.709443"
     inkscape:window-width="1920"
     inkscape:window-height="1017"
     inkscape:window-x="-8"
     inkscape:window-y="-8"
     inkscape:window-maximized="1"
     inkscape:current-layer="svg22" />
  <path
     d="M 0,36.606752 C 0,32.057308 0.72738514,27.808049 2.1812777,23.859716 3.6360368,19.911568 5.7111293,16.46392 8.4056477,13.516235 11.100148,10.569439 14.287555,8.2876429 17.966073,6.6708652 21.644628,5.0549579 25.693887,4.2461061 30.113887,4.2461061 c 1.797222,0 3.806852,0.1713704 6.031481,0.5149629 2.22463,0.3436111 4.28463,0.8798704 6.181852,1.6096851 1.895555,0.7289259 3.478518,1.737537 4.747592,3.0258147 1.267963,1.2874072 1.903333,2.8615732 1.903333,4.7207582 0,1.602574 -0.52037,2.983185 -1.560925,4.141833 -1.041482,1.158704 -2.331667,1.737593 -3.871482,1.737593 -0.941481,0 -2.260925,-0.328519 -3.956296,-0.986481 -1.697222,-0.657778 -3.16537,-1.172778 -4.406851,-1.545723 -1.23963,-0.371129 -2.929815,-0.557574 -5.068704,-0.557574 -2.68037,0 -5.047407,0.522056 -7.10037,1.567 -2.052963,1.044259 -3.764259,2.467408 -5.133277,4.269815 -1.368945,1.803148 -2.416667,3.92074 -3.144037,6.352592 -0.7265,2.431852 -1.091093,5.020741 -1.091093,7.767777 0,5.522593 1.454778,10.143889 4.363445,13.863148 2.908666,3.72 6.943851,5.579259 12.105332,5.579259 2.167222,0 3.885556,-0.214815 5.15463,-0.643704 1.268888,-0.429815 2.808703,-1.044074 4.619999,-1.845926 1.810556,-0.80074 3.200741,-1.201296 4.170556,-1.201296 1.796296,0 3.207777,0.680185 4.234999,2.038518 1.026482,1.359445 1.539815,2.668148 1.539815,3.927037 0,2.575741 -1.098148,4.635556 -3.293518,6.18037 -2.196482,1.545741 -4.812222,2.632593 -7.85,3.262037 -3.036111,0.628704 -5.896111,0.943889 -8.576481,0.943889 -5.817222,0 -11.015184,-1.422407 -15.590943,-4.270741 C 9.9453698,61.850269 6.3801108,57.952677 3.8289442,53.001936 1.2760222,48.052122 0,42.587307 0,36.606752 Z"
     fill="#d01e25"
     id="path2"
     style="stroke-width:1.85185" />
  <path
     d="M 66.387219,64.203973 52.442034,29.311012 C 52.04296,28.166567 51.84296,27.078975 51.84296,26.04916 c 0,-1.516481 0.63463,-2.803889 1.904444,-3.863148 1.267963,-1.058333 2.615741,-1.587407 4.042222,-1.587407 1.510371,0 2.815741,0.393333 3.913889,1.179815 1.097222,0.787592 1.903333,1.896481 2.416667,3.325925 l 8.640925,23.820369 9.281666,-23.820369 c 0.57,-1.429444 1.391111,-2.538333 2.46,-3.325925 1.069815,-0.786482 2.359259,-1.179815 3.871481,-1.179815 1.425556,0 2.772408,0.522037 4.042222,1.566111 1.267963,1.045 1.903334,2.339444 1.903334,3.884444 0,1.258889 -0.2,2.346481 -0.599074,3.261852 L 72.58944,82.057861 c -1.312222,3.319629 -3.293518,4.979073 -5.945555,4.979073 -1.996296,0 -3.593703,-0.544259 -4.790925,-1.630925 -1.198149,-1.088519 -1.796297,-2.360926 -1.796297,-3.81963 0,-1.002407 0.269815,-2.231111 0.812408,-3.691666 z"
     fill="#d01e25"
     id="path4"
     style="stroke-width:1.85185" />
  <path
     d="M 97.744254,61.37101 V 27.636753 c 0,-2.088148 0.577037,-3.783148 1.732592,-5.086482 1.154814,-1.30074 2.673334,-1.952407 4.555554,-1.952407 1.62556,0 2.94408,0.415556 3.9563,1.244815 1.01241,0.830185 1.63278,1.974629 1.86092,3.433333 2.45204,-3.461667 6.50223,-5.193148 12.14889,-5.193148 3.30685,0 6.27296,0.680185 8.89667,2.038518 2.6237,1.359445 4.67666,3.319815 6.15981,5.880371 1.48315,2.560555 2.22463,5.600555 2.22463,9.119999 V 61.37101 c 0,1.373518 -0.27166,2.597037 -0.81241,3.669444 -0.5424,1.073519 -1.29814,1.902778 -2.26703,2.488704 -0.97074,0.586852 -2.05389,0.88074 -3.25111,0.88074 -1.88223,0 -3.40148,-0.65074 -4.55537,-1.952407 -1.15574,-1.301481 -1.73278,-2.997407 -1.73278,-5.086481 V 39.310456 c 0,-2.832408 -0.7637,-4.984445 -2.28833,-6.459259 -1.52649,-1.472963 -3.51574,-2.209815 -5.96778,-2.209815 -1.65389,0 -3.09445,0.379074 -4.32,1.137222 -1.22648,0.758333 -2.15389,1.781111 -2.78037,3.068519 -0.62834,1.287407 -0.94148,2.776296 -0.94148,4.463333 V 61.37101 c 0,1.373518 -0.27074,2.597037 -0.81241,3.669444 -0.54241,1.073519 -1.29815,1.902778 -2.26704,2.488704 -0.96981,0.586852 -2.05389,0.88074 -3.25111,0.88074 -1.88222,0 -3.40074,-0.65074 -4.555554,-1.952407 -1.155555,-1.301481 -1.732592,-2.997407 -1.732592,-5.086481 z"
     fill="#d01e25"
     id="path6"
     style="stroke-width:1.85185" />
  <path
     d="M 146.46462,61.37138 V 7.250143 c 0,-2.0882407 0.57704,-3.7831665 1.73278,-5.0856479 1.15463,-1.30160726 2.67315,-1.95240726 4.55537,-1.95240726 1.22555,0 2.31667,0.29388702 3.27241,0.87987026 0.95481,0.5868704 1.70333,1.4161296 2.24574,2.4886666 0.54166,1.0734258 0.8124,2.2968887 0.8124,3.6695183 v 29.528461 l 13.81686,-13.433333 c 1.9387,-1.83074 3.85018,-2.747037 5.7324,-2.747037 1.51037,0 2.78019,0.586852 3.80667,1.75963 1.02648,1.173889 1.53981,2.489629 1.53981,3.948333 0,1.831667 -0.8274,3.506296 -2.48129,5.021852 l -11.20722,10.043332 14.80074,17.382592 c 1.055,1.201296 1.58277,2.603148 1.58277,4.204815 0,1.688703 -0.57777,3.112036 -1.73314,4.271481 -1.15389,1.157778 -2.55908,1.737592 -4.21297,1.737592 -1.08407,0 -2.08222,-0.307222 -2.9937,-0.922407 -0.91315,-0.61537 -1.93963,-1.609815 -3.08019,-2.983333 l -15.39907,-19.05611 h -0.17167 V 61.37138 c 0,1.373519 -0.27074,2.597037 -0.8124,3.669445 -0.54241,1.073518 -1.29815,1.902777 -2.26704,2.488703 -0.96981,0.586852 -2.05296,0.880741 -3.25111,0.880741 -1.88222,0 -3.40074,-0.650741 -4.55537,-1.952408 -1.15574,-1.301666 -1.73278,-2.997407 -1.73278,-5.086481 z"
     fill="#d01e25"
     id="path8"
     style="stroke-width:1.85185" />
  <path
     d="m 211.0148,31.671567 c -2.11111,0 -3.92963,0.624259 -5.45555,1.870741 -1.52593,1.246481 -2.65741,2.872222 -3.4,4.878703 -0.74259,2.006667 -1.11296,4.07 -1.11296,6.190185 0,2.15037 0.37962,4.206666 1.13333,6.169815 0.75555,1.963888 1.88333,3.554073 3.37963,4.771296 1.49815,1.219074 3.31481,1.828148 5.45555,1.828148 2.16667,0 3.99815,-0.609074 5.49445,-1.828148 1.49815,-1.217223 2.62407,-2.807408 3.38148,-4.771296 0.75555,-1.963149 1.13333,-4.019445 1.13333,-6.169815 0,-2.120185 -0.37037,-4.176481 -1.11296,-6.168889 -0.74074,-1.991296 -1.86852,-3.617962 -3.37963,-4.878703 -1.51111,-1.260741 -3.35,-1.892037 -5.51667,-1.892037 z m 0,-11.588333 c 3.25,0 6.27963,0.665 9.08889,1.995926 2.80741,1.33 5.21852,3.14037 7.22963,5.429259 2.00926,2.289815 3.56296,4.892963 4.66296,7.811296 1.0963,2.918518 1.6463,6.008148 1.6463,9.270185 0,3.291296 -0.55,6.416666 -1.6463,9.377592 -1.1,2.961852 -2.62407,5.551851 -4.57777,7.768703 -1.95371,2.217963 -4.35,3.977592 -7.18519,5.279259 -2.83889,1.302407 -5.91111,1.952407 -9.21852,1.952407 -4.36481,0 -8.27037,-1.093888 -11.72222,-3.282407 -3.45185,-2.189444 -6.12407,-5.150555 -8.02037,-8.884814 -1.89629,-3.733519 -2.84444,-7.803333 -2.84444,-12.21074 0,-3.146482 0.54815,-6.201667 1.64629,-9.163518 1.09815,-2.960185 2.65926,-5.600741 4.68519,-7.917963 2.02407,-2.317407 4.43333,-4.133888 7.22963,-5.450555 2.79444,-1.315741 5.80185,-1.97463 9.02592,-1.97463 z"
     fill="#d01e25"
     id="path10"
     style="stroke-width:1.85185" />
  <path
     d="m 237.61851,60.598603 8.16666,-49.055998 c 0.28519,-1.6878136 1.23148,-3.2335732 2.84259,-4.6354991 1.60926,-1.4019443 3.51111,-2.1033517 5.70741,-2.1033517 2.10741,0 3.96667,0.6223889 5.57778,1.8671666 1.60926,1.2447777 2.67037,2.7257406 3.18333,4.4419622 l 10.3463,34.807572 h 0.17037 l 10.34629,-34.807572 c 0.51297,-1.6878142 1.57408,-3.1607771 3.18519,-4.4206474 1.61111,-1.2580925 3.45555,-1.8884814 5.53704,-1.8884814 2.19444,0 4.1037,0.7014074 5.72777,2.1033517 1.62408,1.4019259 2.57963,2.9476855 2.86297,4.6354991 l 8.16481,49.055998 c 0.0593,0.343518 0.087,0.844259 0.087,1.501296 0,1.918703 -0.60741,3.449444 -1.81667,4.592962 -1.21111,1.145371 -2.71481,1.717037 -4.51111,1.717037 -2.13704,0 -3.72593,-0.486481 -4.76482,-1.459629 -1.04074,-0.972222 -1.73333,-2.531296 -2.07407,-4.678148 l -5.13148,-35.793887 h -0.21296 l -10.47222,36.867405 c -1.02593,3.375556 -3.36297,5.064259 -7.01112,5.064259 -3.70555,0 -6.04259,-1.688703 -7.01296,-5.064259 L 256.00184,26.478234 h -0.17037 l -5.17593,35.793887 c -0.31111,2.117592 -0.99074,3.670555 -2.02778,4.656852 -1.04074,0.987407 -2.63148,1.480925 -4.76851,1.480925 -1.79445,0 -3.29815,-0.579629 -4.50926,-1.738333 -1.21111,-1.158703 -1.81667,-2.683148 -1.81667,-4.571666 0,-0.657037 0.0278,-1.157778 0.0852,-1.501296 z"
     fill="#231f20"
     id="path12"
     style="stroke-width:1.85185" />
  <path
     d="m 325.09628,40.298048 h 20.06296 c -0.34259,-2.889074 -1.39815,-5.221481 -3.16667,-6.995555 -1.76851,-1.773889 -4.06296,-2.660741 -6.88518,-2.660741 -2.71111,0 -4.96296,0.901111 -6.76111,2.703519 -1.79445,1.802222 -2.87963,4.120555 -3.25,6.952777 z m 27.16111,8.455 h -26.86296 c 0.42963,3.004629 1.73889,5.279259 3.93518,6.823147 2.19815,1.545926 4.84815,2.31926 7.95741,2.31926 1.91111,0 3.53518,-0.301112 4.87592,-0.902223 1.34074,-0.600925 3.01667,-1.451666 5.02593,-2.553333 2.01111,-1.101111 3.47222,-1.652407 4.38518,-1.652407 0.85556,0 1.69075,0.26463 2.50186,0.793704 0.81296,0.530185 1.46111,1.209259 1.94629,2.038518 0.48519,0.831111 0.72778,1.702963 0.72778,2.619259 0,1.315741 -0.60556,2.617407 -1.81852,3.904815 -1.21111,1.287407 -2.82222,2.439814 -4.83333,3.454629 -2.01111,1.015741 -4.27778,1.831667 -6.80185,2.446111 -2.52222,0.616111 -4.91111,0.922407 -7.16297,0.922407 -4.59259,0 -8.69814,-1.05037 -12.32037,-3.153703 -3.62222,-2.102407 -6.41666,-5.006666 -8.38333,-8.712592 -1.96852,-3.705 -2.95185,-7.875185 -2.95185,-12.51074 0,-3.147407 0.56111,-6.208704 1.68889,-9.184815 1.12593,-2.975185 2.6963,-5.622036 4.70555,-7.940184 2.00926,-2.317222 4.42037,-4.126667 7.22963,-5.429259 2.80926,-1.301667 5.80926,-1.952408 9.00556,-1.952408 3.27778,0 6.33518,0.680186 9.17407,2.038519 2.83704,1.359259 5.23889,3.154629 7.20741,5.386666 1.96667,2.231111 3.50741,4.714444 4.62037,7.446481 1.11111,2.732778 1.66852,5.443519 1.66852,8.132778 0,3.776851 -1.84074,5.66537 -5.52037,5.66537 z"
     fill="#231f20"
     id="path14"
     style="stroke-width:1.85185" />
  <path
     d="M 365.34998,61.363417 V 32.186752 h -2.82407 c -1.65371,0 -2.98704,-0.506111 -4,-1.518333 -1.01112,-1.01037 -1.51852,-2.358148 -1.51852,-4.039815 0,-1.567962 0.52778,-2.878333 1.58148,-3.933147 1.05555,-1.054815 2.36852,-1.582223 3.93704,-1.582223 h 2.82407 v -7.553851 c 0,-2.088241 0.57593,-3.7831666 1.73148,-5.0856475 1.1537,-1.3015925 2.67407,-1.9532962 4.55556,-1.9532962 1.22407,0 2.31666,0.2947778 3.27222,0.8807592 0.95555,0.5859815 1.7037,1.4152592 2.24629,2.4886669 0.54075,1.0725366 0.81297,2.2959996 0.81297,3.6695176 v 7.553851 h 3.59259 c 1.73889,0 3.17963,0.44926 4.32037,1.346852 1.13889,0.897778 1.71111,2.287222 1.71111,4.168518 0,1.881482 -0.56296,3.277963 -1.69074,4.189815 -1.12593,0.911852 -2.57407,1.368333 -4.34074,1.368333 h -3.59259 v 29.176665 c 0,1.375371 -0.27222,2.59963 -0.81297,3.673148 -0.54259,1.075185 -1.29814,1.905371 -2.26851,2.493148 -0.96852,0.585926 -2.05186,0.880741 -3.25,0.880741 -1.88149,0 -3.40186,-0.651667 -4.55556,-1.955926 -1.15555,-1.302592 -1.73148,-3.000185 -1.73148,-5.091111 z"
     fill="#231f20"
     id="path16"
     style="stroke-width:1.85185" />
  <path
     fill-rule="evenodd"
     clip-rule="evenodd"
     d="m 393.56664,12.444216 c 3.2926,0.0053 5.9926,-2.6830916 5.97593,-6.0267767 -0.0185,-3.2904072 -2.68333,-5.96196814 -5.97963,-5.95841629 -3.31481,0.001776 -6,2.71773129 -5.96852,6.05074959 0.0296,3.2673328 2.68334,5.9362214 5.97222,5.9344434 z m 0,0.459926 c -3.55,-0.0044 -6.42407,-2.880222 -6.42777,-6.4396471 -0.006,-3.5736295 2.87592,-6.46627001 6.42592,-6.46449408269173 C 397.1259,0.00177682 399.98887,2.8890877 399.99998,6.4325319 c 0.009,3.5745181 -2.87408,6.4707211 -6.43334,6.4716101 z"
     fill="#231f20"
     id="path18"
     style="stroke-width:1.85185" />
  <path
     d="m 392.55368,4.1316431 v 1.8298888 h 1.06296 c 0.28519,0 0.51852,-0.081685 0.6963,-0.2468333 0.17778,-0.1642407 0.26667,-0.3879815 0.26667,-0.6703333 0,-0.2929815 -0.0889,-0.5176111 -0.26482,-0.6756481 -0.17592,-0.158037 -0.40926,-0.2370741 -0.69815,-0.2370741 z m -1.54629,5.1975368 V 3.5092543 c 0,-0.2521481 0.0667,-0.4501296 0.2037,-0.5939629 0.13704,-0.1429445 0.33333,-0.2148704 0.59259,-0.2148704 h 1.81296 c 0.82408,0 1.45741,0.1917778 1.90186,0.5744444 0.44444,0.3826667 0.66852,0.9713148 0.66852,1.7668332 0,0.2796852 -0.0482,0.5327222 -0.1463,0.7582407 -0.0982,0.2255185 -0.23333,0.4208519 -0.40926,0.5842037 -0.17778,0.1633704 -0.37963,0.2947778 -0.60556,0.3942222 -0.22777,0.099426 -0.47592,0.1731296 -0.74814,0.2192963 l 1.7574,1.8813703 c 0.13519,0.1482777 0.20186,0.3018703 0.20186,0.4599073 0,0.2095371 -0.0741,0.3942033 -0.22408,0.5540183 -0.15,0.1598146 -0.33148,0.2397216 -0.5463,0.2397216 -0.24814,0 -0.44814,-0.08878 -0.6,-0.2681286 l -2.29259,-2.7852037 h -0.0204 v 2.2498332 c 0,0.2565925 -0.0704,0.4536855 -0.21296,0.5939815 -0.14259,0.1402776 -0.32963,0.2095176 -0.55741,0.2095176 -0.22592,0 -0.41111,-0.07102 -0.55741,-0.2148506 -0.14629,-0.142945 -0.21851,-0.339167 -0.21851,-0.5886485 z"
     fill="#231f20"
     id="path20"
     style="stroke-width:1.85185" />
</svg>
