<?xml version="1.0" encoding="UTF-8" standalone="no"?>
<svg
   width="400"
   height="74.796921"
   viewBox="0 0 400 74.796921"
   fill="none"
   version="1.1"
   id="svg8"
   sodipodi:docname="john-deere.svg"
   inkscape:version="1.2.1 (9c6d41e410, 2022-07-14)"
   xmlns:inkscape="http://www.inkscape.org/namespaces/inkscape"
   xmlns:sodipodi="http://sodipodi.sourceforge.net/DTD/sodipodi-0.dtd"
   xmlns="http://www.w3.org/2000/svg"
   xmlns:svg="http://www.w3.org/2000/svg">
  <defs
     id="defs12" />
  <sodipodi:namedview
     id="namedview10"
     pagecolor="#505050"
     bordercolor="#ffffff"
     borderopacity="1"
     inkscape:showpageshadow="0"
     inkscape:pageopacity="0"
     inkscape:pagecheckerboard="1"
     inkscape:deskcolor="#505050"
     showgrid="false"
     inkscape:zoom="7.4638554"
     inkscape:cx="83"
     inkscape:cy="15.943503"
     inkscape:window-width="1920"
     inkscape:window-height="1017"
     inkscape:window-x="-8"
     inkscape:window-y="-8"
     inkscape:window-maximized="1"
     inkscape:current-layer="svg8" />
  <path
     fill-rule="evenodd"
     clip-rule="evenodd"
     d="M 230.31109,54.554533 V 27.083841 h -6.33578 v 18.53634 L 207.4612,27.083841 h -6.27757 v 27.470692 h 6.33289 V 35.827129 l 16.45879,18.727404 z m 130.7684,-15.658062 c 1.30677,0 3.50243,-0.415462 3.50243,-3.13311 0,-1.947596 -1.27778,-3.058472 -3.50243,-3.058472 h -11.5677 v 6.175156 z m 10.81407,15.658062 h -7.65705 L 356.6012,44.506648 h -7.43724 v 10.047885 h -6.32854 V 27.083841 h 17.89866 c 6.16428,0 9.82614,3.296638 9.82614,8.815269 0,3.307749 -1.82851,7.025645 -6.62806,8.183623 z M 261.36393,20.243729 c 12.12568,0 19.37693,6.515956 19.37693,17.403459 0,7.809707 -5.07733,16.907345 -19.37693,16.907345 H 246.06916 V 20.243729 Z m -8.94208,5.676579 v 22.97453 h 8.94208 c 4.85269,0 13.00732,-1.504357 13.00732,-11.596686 0,-7.236274 -4.74157,-11.377844 -13.00732,-11.377844 z m 128.69157,23.016076 v -5.305345 h 14.61844 V 38.009992 H 381.11342 V 32.704889 H 400 V 27.083841 H 374.79696 V 54.554533 H 400 v -5.618149 z m -61.37234,0 v -5.305345 h 14.6112 v -5.621047 h -14.6112 v -5.305103 h 18.87934 V 27.083841 H 313.4053 v 27.470692 h 25.21512 v -5.618149 z m -29.43012,0 v -5.305345 h 14.60153 v -5.621047 h -14.60153 v -5.305103 h 18.88175 v -5.621048 h -25.20546 v 27.470692 h 25.20546 V 48.936384 Z M 189.70313,27.083841 V 38.009992 H 173.23347 V 27.083841 h -6.32758 v 27.470692 h 6.32758 V 43.631039 h 16.46966 v 10.923494 h 6.32757 V 27.083841 Z m -42.79639,22.506412 c -3.70123,0 -9.92904,-1.149765 -9.92904,-8.851501 0,-5.51839 3.62369,-8.687732 9.92904,-8.687732 6.30245,0 9.91504,3.169342 9.91504,8.687732 0,7.701736 -6.21381,8.851501 -9.91504,8.851501 z m -16.2455,-8.55778 c 0,6.527092 4.25268,14.167716 16.2455,14.167716 11.99017,0 16.24817,-7.640624 16.24817,-14.167716 0,-9.142082 -6.0754,-14.605399 -16.24817,-14.605399 -10.17276,0 -16.2455,5.463317 -16.2455,14.605399 z m -27.82818,6.99521 c 0,0 3.59325,1.296626 7.61574,1.296626 4.28843,0 6.96478,-0.5901 8.45512,-2.111123 1.24107,-1.246626 1.73431,-3.335527 1.6732,-6.421777 0,-0.01111 0,-20.511665 0,-20.511665 h 6.33579 v 21.395487 c -0.0913,9.480248 -4.6708,13.524958 -15.30879,13.524958 -5.17249,0 -8.77106,-0.828507 -8.77106,-0.828507 z"
     fill="#367c2b"
     id="path2"
     style="stroke-width:2.41547" />
  <path
     fill-rule="evenodd"
     clip-rule="evenodd"
     d="M 76.448115,8.0838998 C 65.912305,2.9144252 53.781074,0 41.150808,0 28.479236,0 16.364504,2.9338214 5.8039111,8.1310015 2.0611478,17.184532 0,27.060894 0,37.405399 c 0,10.341848 2.0611478,20.212437 5.8011333,29.260557 10.5633707,5.205586 22.6781027,8.130965 35.3496747,8.130965 12.630266,0 24.767052,-2.914509 35.302862,-8.083863 3.756544,-9.061889 5.823223,-18.952043 5.823223,-29.307659 0,-10.361171 -2.072235,-20.254103 -5.828778,-29.3214992 z"
     fill="#367c2b"
     id="path4"
     style="stroke-width:2.41547" />
  <path
     fill-rule="evenodd"
     clip-rule="evenodd"
     d="m 29.922723,28.919842 c -1.701218,3.382629 -2.881176,7.172506 -3.363305,11.49427 -0.141305,0.01667 -1.005561,0.09155 -1.005561,0.09155 -3.54618,0.326813 -7.216902,0.600969 -10.771271,1.975132 l 0.252103,1.440588 c 5.798367,7.211395 14.585858,11.563594 14.674506,11.599585 l 0.202417,-0.216185 -1.897837,-3.025139 c -0.451452,-0.340823 -1.640107,-0.609424 -1.676097,-0.614979 -3.958767,-1.321505 -6.734653,-6.493758 -7.191781,-7.380236 3.263497,-0.01111 6.12535,0.936237 8.895656,1.850494 1.828513,0.603868 3.55147,1.171987 5.335779,1.465467 3.138666,0.504351 6.418878,-0.08575 9.372036,-0.45435 2.39639,-0.287925 4.7208,-0.282611 7.039413,-0.130194 0.277054,0.340823 2.712334,3.288425 5.033845,4.501958 2.919824,1.531893 11.408279,4.064033 11.826639,4.207996 0.174639,0.163527 3.443499,3.451952 5.451965,7.261153 -9.510442,4.37732 -20.20978,6.693276 -30.953079,6.693276 -10.771319,0 -21.506358,-2.332622 -31.053007,-6.759701 C 6.9452463,54.764679 5.3439809,46.187576 5.3439809,37.400085 c 0,-8.773723 1.6040432,-17.359159 4.7566941,-25.520632 9.543896,-4.4187211 20.276157,-6.7569232 31.047476,-6.7569232 10.76842,0 21.492395,2.3271151 31.011291,6.7181312 3.16113,8.172559 4.765004,16.769035 4.765004,25.559424 0,8.053429 -1.33793,15.91845 -3.975385,23.409557 -3.030694,-5.255586 -4.257996,-6.845692 -4.257996,-6.845692 -0.03889,-0.02778 -4.283117,-2.241318 -5.332882,-3.144222 -0.836719,-0.725849 -1.235756,-2.202669 -1.698319,-3.911858 -0.6401,-2.371511 -1.443486,-5.302446 -3.742775,-7.729272 l 2.554363,-1.044451 c -0.709183,-4.922975 -6.54086,-8.119854 -6.601971,-8.155844 l -0.329471,0.155073 c 2.224409,2.78963 2.875621,5.166697 2.875621,6.615498 0,0.739859 -0.116426,1.227301 -0.169083,1.432375 -0.667637,-0.243721 -4.975633,-1.637208 -14.768685,-1.268848 -1.437931,0.0471 -3.496397,-0.01667 -4.726356,-1.210635 -0.695415,-0.673192 -1.044451,-1.640106 -1.044451,-2.881176 0,-0.0056 0,-0.0056 0,-0.01111 0.0056,-3.396397 1.437931,-7.975892 1.642763,-8.61865 l 2.557262,0.310389 c 3.038906,-1.692716 4.230217,-3.147144 4.396402,-3.37432 l -0.141305,-0.14959 c -2.598566,0.335195 -5.994963,1.019475 -5.994963,1.019475 0.224398,-0.595608 0.914257,-2.551489 0.914257,-4.765004 0,-2.388057 -0.800729,-5.069764 -3.839878,-6.629483 l -0.323914,0.157924 c 0.02754,0.02493 1.770058,1.919866 1.770058,4.521234 0,0.72027 -0.138406,1.498752 -0.484785,2.304917 -0.991793,-0.412781 -1.401699,-0.454327 -2.587455,-0.487564 -0.578989,-2.036219 -2.357502,-3.767703 -4.778772,-4.643118 l -0.293721,0.177295 c 0.02778,0.0194 2.590353,1.842281 2.736972,4.532297 -1.290829,0.105291 -1.839382,0.229953 -3.432387,0.717541 -0.667637,-1.116456 -2.18866,-1.914335 -4.10012,-2.144264 l -0.246548,0.19116 c 0.02215,0.01106 2.271777,0.789546 2.778543,2.515474 -1.3988,0.642733 -2.842263,1.628971 -3.828525,2.421294 l 0.09974,0.376766 c 5.834358,-2.266149 11.289221,-2.928254 12.68005,-1.279911 0.23261,0.279808 0.354591,0.606718 0.354591,0.991793 0,0.487588 -0.188407,1.047204 -0.557008,1.68716 -2.892287,0.631646 -7.208496,1.861581 -10.759966,3.197096 l 0.473674,1.490347 c 0,0 3.571036,0.725849 4.925633,1.00846 0,0 0.507008,0.06932 0.255074,0.581645 z M 73.938197,10.29756 C 64.097801,5.6655282 52.83904,3.0641604 41.148151,3.0641604 c -11.721325,0 -22.960786,2.6152084 -32.8288146,7.2777236 -3.3355025,8.410822 -5.1528561,17.539063 -5.1528561,27.080182 0,9.513582 1.8173536,18.630785 5.1334598,27.030592 9.8680279,4.667902 21.1157749,7.28869 32.8482109,7.28869 11.696445,0 22.966317,-2.604122 32.812027,-7.244487 3.321758,-8.40802 5.144716,-17.541889 5.144716,-27.074795 0,-9.557544 -1.831412,-18.697066 -5.166697,-27.124506 z"
     fill="#ffde00"
     id="path6"
     style="stroke-width:2.41547" />
</svg>
