<?xml version="1.0" encoding="UTF-8" standalone="no"?>
<!-- Generator: Adobe Illustrator 24.3.0, SVG Export Plug-In . SVG Version: 6.00 Build 0)  -->

<svg
   version="1.1"
   id="Ebene_1"
   x="0px"
   y="0px"
   viewBox="0 0 400.00001 74.492644"
   xml:space="preserve"
   sodipodi:docname="lemken.svg"
   width="400"
   height="74.492645"
   inkscape:version="1.2.1 (9c6d41e410, 2022-07-14)"
   xmlns:inkscape="http://www.inkscape.org/namespaces/inkscape"
   xmlns:sodipodi="http://sodipodi.sourceforge.net/DTD/sodipodi-0.dtd"
   xmlns="http://www.w3.org/2000/svg"
   xmlns:svg="http://www.w3.org/2000/svg"><defs
   id="defs33" /><sodipodi:namedview
   id="namedview31"
   pagecolor="#505050"
   bordercolor="#ffffff"
   borderopacity="1"
   inkscape:showpageshadow="0"
   inkscape:pageopacity="0"
   inkscape:pagecheckerboard="1"
   inkscape:deskcolor="#505050"
   showgrid="false"
   inkscape:zoom="2.1854936"
   inkscape:cx="88.538351"
   inkscape:cy="9.1512507"
   inkscape:window-width="1920"
   inkscape:window-height="1017"
   inkscape:window-x="-8"
   inkscape:window-y="-8"
   inkscape:window-maximized="1"
   inkscape:current-layer="Ebene_1" />
<style
   type="text/css"
   id="style2">
	.st0{fill:#009EE0;}
</style>



<path
   class="st0"
   d="m 73.915475,27.816051 c 0.167566,1.284676 0.204802,2.345931 0.204802,3.667845 0,17.501396 -14.094209,31.483896 -31.595606,31.483896 -10.556694,0 -19.903185,-5.082853 -25.656303,-13.014337 h 6.330293 c 4.878048,5.064234 11.729659,8.229381 19.307392,8.229381 14.801713,0 26.792032,-11.990319 26.792032,-26.792032 v -0.651648 z"
   id="path10"
   style="stroke-width:1.86185" />
<path
   class="st0"
   d="m 16.495998,37.925899 c -0.484082,-2.010798 -0.763359,-4.114689 -0.763359,-6.255818 0,-15.248557 12.008937,-27.0154542 26.81065,-27.0154542 4.393968,0 8.99274,0.986781 12.455782,3.1465278 L 63.172595,7.5218769 C 57.773228,2.8113946 50.381681,0 42.543289,0 25.041892,0 10.85459,14.187303 10.85459,31.6887 c 0,2.960342 0.409607,5.939303 1.210203,8.434183 z"
   id="path12"
   style="stroke-width:1.86185" />
<path
   class="st0"
   d="M 67.454852,24.4461 C 61.403837,29.324149 45.485014,35.970956 45.485014,35.970956 L 31.074289,34.313909 c 0,0 3.816794,-6.72128 6.702663,-10.687022 2.904487,-3.984362 4.300875,-5.064236 8.955502,-7.056416 4.636008,-1.99218 9.849191,-2.476261 16.663563,-2.23422 6.870229,0.24204 11.524857,-0.07448 11.748279,2.401787 0.204804,2.103892 -1.638429,2.830014 -7.689444,7.708062 M 42.580526,43.455596 h -22.56563 c 1.601191,-0.837832 6.497859,-4.524297 6.497859,-4.524297 l 16.607708,1.675665 z M 72.183953,10.035375 C 67.473471,9.327872 59.672317,8.657606 53.546827,9.737479 c -6.125489,1.079874 -12.977099,2.439024 -17.557253,7.7453 -4.580152,5.306274 -6.609569,12.027555 -11.022155,16.011916 -4.412586,3.98436 -4.952523,4.636008 -11.320053,8.210761 C 7.2612179,45.298828 0,48.221935 0,48.221935 h 46.620743 l 0.353751,-1.433625 15.192702,1.433625 0.707504,-5.957924 -14.299014,-1.303294 0.05585,-1.079874 c 0,0 14.522436,-6.907467 17.035935,-8.508658 2.494879,-1.601192 14.541054,-9.178925 14.46658,-13.405325 -0.03723,-4.226401 -3.258239,-7.205363 -7.950103,-7.931485"
   id="path14"
   style="stroke-width:1.86185" />
<polygon
   class="st0"
   points="214.84,32.27 214.84,4.09 205.19,4.09 205.19,16.52 197.57,4.09 187.71,4.09 187.71,32.27 197.19,32.27 197.19,19.52 205.19,32.27 "
   id="polygon16"
   transform="matrix(1.8618507,0,0,1.8618507,0,-2.3459319)" />
<polygon
   class="st0"
   points="153.58,17.87 161.34,4.09 150.48,4.09 142.86,17.87 151.06,32.27 162.65,32.27 "
   id="polygon18"
   transform="matrix(1.8618507,0,0,1.8618507,0,-2.3459319)" />
<rect
   x="246.86279"
   y="5.2690377"
   class="st0"
   width="18.860548"
   height="52.857941"
   id="rect20"
   style="stroke-width:1.86185" />
<polygon
   class="st0"
   points="104.56,32.27 104.56,18.74 112.11,41.27 119.39,18.74 119.39,32.27 129.17,32.27 129.17,4.09 116.94,4.09 111.97,18.83 107.22,4.09 94.91,4.09 94.91,32.27 "
   id="polygon22"
   transform="matrix(1.8618507,0,0,1.8618507,0,-2.3459319)" />
<polygon
   class="st0"
   points="173.42,21.59 184.78,21.59 184.78,14.7 173.42,14.7 173.42,10.76 184.78,10.76 184.78,4.09 163.41,4.09 163.41,32.27 184.78,32.27 184.78,25.52 173.42,25.52 "
   id="polygon24"
   transform="matrix(1.8618507,0,0,1.8618507,0,-2.3459319)" />
<polygon
   class="st0"
   points="80.6,21.59 91.96,21.59 91.96,14.7 80.6,14.7 80.6,10.76 91.96,10.76 91.96,4.09 70.59,4.09 70.59,32.27 91.96,32.27 91.96,25.52 80.6,25.52 "
   id="polygon26"
   transform="matrix(1.8618507,0,0,1.8618507,0,-2.3459319)" />
<polygon
   class="st0"
   points="58.05,4.07 48.79,4.07 48.79,32.26 67.84,32.26 67.84,25.5 58.05,25.5 "
   id="polygon28"
   transform="matrix(1.8618507,0,0,1.8618507,0,-2.3459319)" />
</svg>
