<?xml version="1.0" encoding="UTF-8" standalone="no"?>
<!-- Generator: Adobe Illustrator 19.0.0, SVG Export Plug-In . SVG Version: 6.00 Build 0)  -->

<svg
   version="1.1"
   id="layer"
   x="0px"
   y="0px"
   viewBox="0 0 400 61.26667"
   xml:space="preserve"
   sodipodi:docname="manitou.svg"
   width="400"
   height="61.26667"
   inkscape:version="1.2.1 (9c6d41e410, 2022-07-14)"
   xmlns:inkscape="http://www.inkscape.org/namespaces/inkscape"
   xmlns:sodipodi="http://sodipodi.sourceforge.net/DTD/sodipodi-0.dtd"
   xmlns="http://www.w3.org/2000/svg"
   xmlns:svg="http://www.w3.org/2000/svg"><defs
   id="defs11" /><sodipodi:namedview
   id="namedview9"
   pagecolor="#505050"
   bordercolor="#ffffff"
   borderopacity="1"
   inkscape:showpageshadow="0"
   inkscape:pageopacity="0"
   inkscape:pagecheckerboard="1"
   inkscape:deskcolor="#505050"
   showgrid="false"
   inkscape:zoom="1.2837423"
   inkscape:cx="457.64636"
   inkscape:cy="96.592593"
   inkscape:window-width="1920"
   inkscape:window-height="1017"
   inkscape:window-x="-8"
   inkscape:window-y="-8"
   inkscape:window-maximized="1"
   inkscape:current-layer="layer" />
<style
   type="text/css"
   id="style2">
	.st0{fill:#E20714;}
</style>
<path
   class="st0"
   d="m 63.133333,31.26667 -6.666666,1.8 C 56,33.2 55.533333,32.93333 55.4,32.46667 l -5.066667,-19.2 c -0.133333,-0.46667 -0.6,-0.73334 -1.066666,-0.6 l -2.533334,0.6 c -0.466666,0.0667 -0.733333,0.53333 -0.666666,1 0,0 0,0 0,0 L 50,29.33333 c -0.266667,0.0667 -2.066667,0.46667 -2.333333,0.53334 l -3.8,-13.8 c -0.333334,-1.13334 -1.4,-2 -2.666667,-2 h -7.4 c -1,0 -1.933333,0.53333 -2.46667,1.4 0,0 -4.06666,7.2 -5.26666,9.33333 h -12 c -1,0 -1.93334,0.53333 -2.4,1.33333 l -2.8,4.6 C 8.53333,31.26667 8.4,31.86667 8.53333,32.46667 l 0.53334,3.46666 c 0.0667,0.53334 0.33333,1 0.66666,1.4 -0.13333,0.4 -0.2,0.8 -0.26666,1.2 -0.13334,1.46667 0.33333,3 1.4,4.06667 1.06666,1.06667 2.46666,1.66667 4.06666,1.66667 3.2,0 5.86667,-2.4 6.2,-5.4 0,-0.2 0,-0.33334 0,-0.53334 0,-0.0667 0,-0.13333 0,-0.2 h 10.2 c 0.26667,1.33334 0.933337,2.53334 1.933337,3.6 1.533333,1.6 3.666666,2.46667 6,2.46667 4.733333,0 8.733333,-3.53333 9.2,-8 0.06667,-0.4 0.06667,-0.73333 0.06667,-1.06667 l 2.8,-0.66666 0.8,2.93333 c 0.133334,0.46667 0.6,0.73333 1.066667,0.6 l 8.6,-2.26667 c 0.466667,-0.13333 0.933333,-0.66666 1,-1.13333 l 1,-2.66667 c 0.133333,-0.46666 -0.2,-0.8 -0.666667,-0.66666 M 43.2,35.73333 c -0.2,1.8 -1.933333,3.33334 -3.866667,3.33334 -0.8,0 -1.533333,-0.26667 -2.066666,-0.8 C 36.733333,37.73333 36.533333,37 36.6,36.2 c 0.2,-1.8 1.933333,-3.33333 3.866667,-3.33333 0.8,0 1.533333,0.26666 2.066666,0.8 0.533334,0.6 0.733334,1.33333 0.666667,2.06666 M 32.133333,32.86667 H 14.26667 c 0,-0.13334 -0.0667,-0.2 -0.0667,-0.33334 l 1.46667,-2.46666 H 27.7333 c 1,0 1.93334,-0.53334 2.46667,-1.4 0,0 4.066667,-7.2 5.266667,-9.33334 h 3.666666 l 2.333334,8.4 c -0.333334,0 -0.6,-0.0667 -0.933334,-0.0667 -3.666666,0.0667 -6.933333,2.2 -8.4,5.2 M 17.1333,38.53329 c -0.0667,1 -1.06666,1.8 -2.06666,1.8 -0.53334,0 -0.86667,-0.2 -1.06667,-0.4 -0.26667,-0.26666 -0.4,-0.66666 -0.33333,-1.06666 0.0667,-1 1.06666,-1.8 2.06666,-1.8 0.53334,0 0.86667,0.2 1.06667,0.4 0.26667,0.33333 0.33333,0.66666 0.33333,1.06666 M 74.466667,57 h 14.266666 l 5.8,-37.6 0.333334,37.6 H 111.6 l 11.8,-37 -5.73333,37 h 16.4 l 8.46666,-54.93333 h -25 l -10.2,31.8 0.53334,-31.8 H 83 Z"
   id="path4"
   style="stroke-width:0.666667" />
<path
   class="st0"
   d="m 167.13333,34.53333 h -7.46666 l 7.46666,-19.4 z M 187.26667,57 182.33333,2.06667 h -23.8 L 134.06667,57 h 17.8 l 3.46666,-8.66667 h 12.8 V 57 Z m 4.26666,0 h 14.6 l 5.2,-32.8 5,32.8 H 238.2 L 246.86667,2.06667 H 231.93333 L 226.8,34.4 222.26667,2.06667 h -22 z M 242.6,57 h 17.46667 L 268.13333,2.06667 H 250.66667 Z M 400,2.06667 394.06667,41.93333 c 0,-0.0667 -1.26667,17.13334 -24.86667,17.13334 -19.93333,0 -18.46667,-12.33334 -17.8,-17.2 L 357.4,2 h 18 l -5.66667,37.6 c -0.2,1.33333 -0.66666,4.66667 2.66667,4.66667 3.33333,0 3.86667,-3.33334 4.06667,-4.66667 L 382.06667,2 400,2.0667 m -69.8,37.6 c -0.2,1.33333 -0.66667,4.66666 -4,4.66666 -3.33333,0 -2.86667,-3.33333 -2.66667,-4.66666 l 2.8,-18.66667 c 0.26667,-1.73333 0.66667,-4.66667 4,-4.66667 3.33334,0 2.93334,2.93334 2.66667,4.66667 z M 345.53333,4.6 C 341.13333,1.53333 335.8,2.06667 328.26667,2.06667 h -55.8 l -2.2,14.26666 h 9.46666 l -6.2,41.93334 h 17.93334 L 297.6,16.4 h 11.73333 l -3.4,23 c 0,0 -3.8,19.73333 17.33334,19.73333 22.66666,0 24.2,-17.33333 24.2,-17.33333 l 3.46666,-23 c 0,-0.0667 1.73334,-9.13333 -5.4,-14.2 z M 29.8,2.06667 h -20 c -0.26667,0 -0.46667,0.2 -0.46667,0.4 l -2.86666,18.6 C 10.8,11.8 19.66667,4.6 29.8,2.06667 M 0,60.8 c 0,0.13333 0,0.26667 0.13333,0.33333 v 0 c 0.0667,0.0667 0.2,0.13334 0.26667,0.13334 H 31.06667 C 47.8,61.26667 63.2,47.73333 65.666667,31 l 4.6,-30.6 c 0,-0.13333 0,-0.2 -0.06667,-0.26667 0,0 0,0 0,0 0,0 0,0 0,0 v 0 C 70.133333,0.06667 70,0 69.933333,0 H 46.2 c 0.533333,0.13333 1.066667,0.33333 1.6,0.53333 C 59,4.8 66.333333,16.8 64.6,30 c 0,0.13333 -0.06667,0.26667 -0.06667,0.46667 -2.066666,14.33333 -13.8,26.26666 -27.666666,29.2 C 35,60 33.133333,60.2 31.2,60.2 h -6 C 24,60.2 22.86667,60 21.73333,59.73333 12,56.8 5.06667,48.8 3.46667,38.6 Z"
   id="path6"
   style="stroke-width:0.666667" />
</svg>
