<?xml version="1.0" encoding="UTF-8" standalone="no"?>
<!-- Generator: Adobe Illustrator 19.0.0, SVG Export Plug-In . SVG Version: 6.00 Build 0)  -->

<svg
   version="1.1"
   id="layer"
   x="0px"
   y="0px"
   viewBox="0 0 400 104.50436"
   xml:space="preserve"
   sodipodi:docname="steyr.svg"
   width="400"
   height="104.50436"
   inkscape:version="1.2.1 (9c6d41e410, 2022-07-14)"
   xmlns:inkscape="http://www.inkscape.org/namespaces/inkscape"
   xmlns:sodipodi="http://sodipodi.sourceforge.net/DTD/sodipodi-0.dtd"
   xmlns="http://www.w3.org/2000/svg"
   xmlns:svg="http://www.w3.org/2000/svg"><defs
   id="defs53" /><sodipodi:namedview
   id="namedview51"
   pagecolor="#505050"
   bordercolor="#ffffff"
   borderopacity="1"
   inkscape:showpageshadow="0"
   inkscape:pageopacity="0"
   inkscape:pagecheckerboard="1"
   inkscape:deskcolor="#505050"
   showgrid="false"
   inkscape:zoom="1.2837423"
   inkscape:cx="444.40382"
   inkscape:cy="-17.137395"
   inkscape:window-width="1920"
   inkscape:window-height="1017"
   inkscape:window-x="-8"
   inkscape:window-y="-8"
   inkscape:window-maximized="1"
   inkscape:current-layer="g48" />
<style
   type="text/css"
   id="style2">
	.st0{fill:#E40521;}
</style>
<g
   id="g48"
   transform="translate(118.4,-156.6)">
	<path
   class="st0"
   d="m 248.2013,187.95131 c 3.69249,-0.76637 5.85225,-1.95075 7.80299,-4.87687 2.02042,-2.99579 1.88108,-6.06125 -0.0697,-7.38498 -2.5081,-1.67207 -6.27026,-1.6024 -12.33151,-1.6024 h -15.88466 l -5.22522,14.63061 h 12.26184 c 5.22522,0 11.49548,-0.34834 13.44623,-0.76636 m -366.46196,40.82637 c 3.34414,-5.64324 12.88887,-15.1183 24.105672,-15.1183 h 32.257013 c 9.75374,0 11.42581,-3.13513 11.983167,-5.78257 0.836035,-4.18018 -4.249844,-4.38919 -7.802993,-4.66786 -5.434226,-0.41802 -18.671446,-1.04505 -23.896664,-1.46307 C -94.991023,200.5615 -103.9784,190.87743 -101.88831,179.24261 -99.728554,166.77176 -85.794639,156.6 -70.88535,156.6 h 186.22677 c 11.2168,0 22.43361,6.06125 27.79816,15.04863 l 9.6144,16.37235 23.61799,-20.69187 c 11.77416,-9.6144 25.84741,-10.65944 33.6504,-10.65944 h 35.32248 c 24.10567,0 36.92487,8.08167 36.22818,23.89666 -0.48769,12.95854 -11.14713,20.83121 -29.19155,22.01559 l 21.17955,24.31468 c 3.2048,3.62282 0.27867,4.24984 -6.82762,4.38918 l -10.3111,0.0697 c -4.04083,-0.13934 -7.66365,-0.97537 -10.58977,-4.31951 l -20.83121,-24.38435 h -7.45464 l -3.9015,10.93812 c -5.08588,14.14293 -18.74111,18.53211 -30.23659,19.78616 -1.39339,0.13934 -2.43844,-0.34835 -1.67207,-2.22943 l 9.40539,-26.19576 10.58978,-29.53989 0.0697,-0.34835 c 0,-0.48769 -0.41801,-0.90571 -0.97537,-0.90571 l -0.55736,0.20901 -38.10925,31.90867 -2.64745,7.38497 c -5.01621,14.00359 -18.88045,18.53211 -30.30626,19.71649 -1.39339,0.13934 -2.43844,-0.34835 -1.67207,-2.22943 l 9.19638,-25.6384 -16.7207,-29.40056 c -0.69669,-1.18438 -1.8114,-1.88108 -3.83182,-1.88108 H 76.953487 l -3.971166,11.07746 h 36.785539 c 0.76636,0 1.53273,0.6967 1.53273,1.53274 l -0.20901,0.69669 c -2.50811,4.8072 -12.679864,15.04863 -24.384352,15.04863 H 66.64239 l -3.971166,11.14713 h 27.658821 24.802365 c 0.76637,0 1.46307,0.76637 1.46307,1.67207 l -0.20901,0.6967 c -2.50811,4.8072 -12.67987,15.11829 -24.384355,15.11829 H 38.983569 c -3.553148,0 -5.016209,-2.29909 -4.110505,-4.8072 L 53.61418,174.08706 H 27.627428 l -13.864245,39.43298 c -5.0162094,13.93392 -18.8804548,18.53211 -30.306265,19.71649 -1.393391,0.13934 -2.438435,-0.34835 -1.67207,-2.22942 L 2.1980336,174.08706 H -67.471541 c -7.454644,0 -10.102088,1.95075 -10.798784,5.5039 -0.696696,3.41381 2.368765,4.24984 5.573566,4.66786 6.409601,0.76637 21.945916,1.67207 27.101464,2.15976 15.814994,1.53273 21.31889,10.86845 19.368142,22.29426 -2.159757,12.40119 -15.814993,22.50327 -30.445604,22.50327 h -60.194513 c -0.83603,0 -1.53273,-0.76636 -1.53273,-1.67207 z"
   id="path4"
   style="stroke-width:0.696696" />
	<path
   class="st0"
   d="m 276.62649,260.68634 v -16.23301 h -2.99579 l 0.34834,11.42581 -7.17596,-11.42581 h -2.71712 v 16.23301 h 2.9958 l -0.20901,-11.35614 7.10629,11.35614 h 2.64745 m -14.90929,0 v -2.71711 h -9.12672 v -4.31951 h 7.803 v -2.64745 h -7.803 v -3.83182 h 8.56936 v -2.71712 h -11.56515 v 16.23301 z m -17.97475,-11.14713 c 0,1.32372 -0.76637,1.88108 -1.25405,2.15976 -0.76637,0.41802 -1.81141,0.41802 -3.62282,0.41802 h -1.04505 v -5.08588 h 2.43844 c 1.32372,0 1.95075,0.13934 2.43843,0.48768 0.97538,0.6967 1.04505,1.67207 1.04505,2.02042 m 3.48348,11.14713 -3.62282,-6.61861 c 1.88108,-0.55735 2.64744,-1.95074 2.92612,-2.64744 0.27868,-0.76636 0.27868,-1.53273 0.27868,-1.81141 0,-0.55735 -0.0697,-1.95075 -0.97537,-3.2048 -1.46307,-1.88108 -3.62282,-1.95075 -4.38919,-1.95075 h -6.61861 v 16.23301 h 2.99579 v -5.99158 h 2.71712 l 3.2048,5.99158 z m -18.39277,-7.80299 c -0.0697,3.06546 -1.6024,4.45885 -2.85645,5.01621 -0.76637,0.34835 -1.53273,0.41802 -1.88108,0.41802 -0.41802,0 -1.39339,-0.0697 -2.36877,-0.6967 -2.29909,-1.53273 -2.29909,-4.45885 -2.29909,-5.08588 0,-3.06546 1.39339,-4.52852 2.57777,-5.15554 0.34835,-0.13934 1.04504,-0.48769 2.09009,-0.48769 1.6024,0 2.92612,0.76636 3.76216,2.15976 0.76636,1.04504 1.04504,2.5081 0.97537,3.83182 m 3.06546,-0.34835 c 0,-3.13513 -1.18438,-5.01621 -2.02042,-5.92191 -0.76636,-0.9057 -2.64744,-2.57777 -5.78257,-2.57777 -3.48348,0 -6.27026,2.15975 -7.31531,5.43422 -0.48768,1.39339 -0.48768,2.64745 -0.48768,3.13513 0,2.22943 0.62702,4.24985 2.15975,5.99159 1.53273,1.74174 3.27447,2.5081 5.57357,2.5081 1.39339,0 2.29909,-0.27868 2.85645,-0.48769 1.46306,-0.48768 2.36877,-1.46306 2.78678,-1.88107 2.09009,-2.2991 2.22943,-5.15555 2.22943,-6.2006 m -16.16334,-5.36455 v -2.71712 h -11.9135 v 2.71712 h 4.38919 v 13.51589 h 2.99579 v -13.51589 z m -12.47085,13.51589 -5.64324,-10.10208 5.29489,-6.13093 h -3.55315 l -6.47927,7.45465 v -7.45465 h -3.06546 v 16.23301 h 2.99579 v -4.59819 l 2.64744,-2.99579 4.31952,7.66365 h 3.48348 z M 182.7119,254.8341 h -4.45885 l 2.22942,-7.45464 z m 5.01621,5.85224 -5.5039,-16.23301 h -3.4138 l -5.5039,16.23301 h 3.27447 l 0.97537,-3.2048 h 6.06126 l 0.97537,3.2048 z m -18.67145,-11.14713 c 0,1.32372 -0.76636,1.88108 -1.25405,2.15976 -0.76636,0.41802 -1.81141,0.41802 -3.62282,0.41802 h -1.11471 v -5.08588 h 2.43844 c 1.32372,0 1.88107,0.13934 2.43843,0.48768 1.04505,0.6967 1.11471,1.67207 1.11471,2.02042 m 3.48348,11.14713 -3.62281,-6.61861 c 1.88107,-0.55735 2.64744,-1.95074 2.92612,-2.64744 0.27868,-0.76636 0.27868,-1.53273 0.27868,-1.81141 0,-0.55735 -0.0697,-1.95075 -0.97538,-3.2048 -1.46306,-1.88108 -3.62282,-1.95075 -4.38918,-1.95075 h -6.61861 v 16.23301 h 2.99579 v -5.99158 h 2.71711 l 3.2048,5.99158 z m -14.76995,-13.51589 v -2.71712 H 145.8567 v 2.71712 h 4.38918 v 13.51589 h 3.06546 v -13.51589 z"
   id="path6"
   style="stroke-width:0.696696" />
	
	
	
	
	
	
	
	
	
	
	
	
	
	
	
	
	
	
	
	
</g>
</svg>
