<?xml version="1.0" encoding="UTF-8" standalone="no"?>
<!-- Generator: Adobe Illustrator 26.0.0, SVG Export Plug-In . SVG Version: 6.00 Build 0)  -->

<svg
   version="1.1"
   id="Ebene_1"
   x="0px"
   y="0px"
   viewBox="0 0 400.00001 92.322737"
   xml:space="preserve"
   sodipodi:docname="strautman.svg"
   width="400"
   height="92.322739"
   inkscape:version="1.2.1 (9c6d41e410, 2022-07-14)"
   xmlns:inkscape="http://www.inkscape.org/namespaces/inkscape"
   xmlns:sodipodi="http://sodipodi.sourceforge.net/DTD/sodipodi-0.dtd"
   xmlns="http://www.w3.org/2000/svg"
   xmlns:svg="http://www.w3.org/2000/svg"><defs
   id="defs31" /><sodipodi:namedview
   id="namedview29"
   pagecolor="#505050"
   bordercolor="#ffffff"
   borderopacity="1"
   inkscape:showpageshadow="0"
   inkscape:pageopacity="0"
   inkscape:pagecheckerboard="1"
   inkscape:deskcolor="#505050"
   showgrid="false"
   inkscape:zoom="1.9495"
   inkscape:cx="65.914336"
   inkscape:cy="40.52321"
   inkscape:window-width="1920"
   inkscape:window-height="1017"
   inkscape:window-x="-8"
   inkscape:window-y="-8"
   inkscape:window-maximized="1"
   inkscape:current-layer="Ebene_1" />
<style
   type="text/css"
   id="style2">
	.st0{fill:#FFDD00;}
	.st1{fill:#FFDD06;}
</style>
<path
   class="st0"
   d="m 60.440098,92.32274 c -3.325184,0 -6.454768,-0.977997 -8.997555,-2.933987 L 2.933985,51.638142 C 1.1735941,50.268949 0,48.312958 0,46.161369 0,44.00978 0.9779951,42.05379 2.933985,40.684597 L 51.442543,2.9339851 c 4.889975,-3.91198013 12.909535,-3.91198013 17.799511,0 L 80,11.344743 78.826406,12.713936 68.06846,4.3031781 c -4.303179,-3.32518292 -11.149145,-3.32518292 -15.452323,0 L 4.107579,42.249389 c -1.369193,0.977995 -2.151589,2.542787 -2.151589,3.91198 0,1.564792 0.782396,2.933986 2.151589,3.911981 l 48.508558,37.750611 c 4.303178,3.325183 11.149144,3.325183 15.452323,0 L 78.826406,79.413203 80,80.977995 69.242054,89.388753 c -2.347188,1.95599 -5.476773,2.933987 -8.801956,2.933987 z"
   id="path4"
   style="stroke-width:1.95599" />
<g
   id="g26"
   transform="matrix(1.9559902,0,0,1.9559902,-16.03912,-16.625917)">
	<path
   class="st1"
   d="m 31.7,36.8 c 1.7,1.8 3.8,2.9 6.9,2.9 3,0 4.6,-1.1 4.6,-3 0,-1.5 -1,-2 -2.3,-2.4 -1.9,-0.6 -4.5,-1 -6.9,-2 -2.5,-1 -4.3,-2.4 -4.3,-5.5 0,-3.9 3.1,-6.7 8.7,-6.7 4.7,0 7.5,1.9 9,3.7 l -3.4,3 c -1.4,-1.4 -3.2,-2.3 -5.8,-2.3 -2.3,0 -3.8,0.7 -3.8,2.1 0,1.1 1,1.6 1.9,2 1.9,0.7 4.7,1 7.1,1.9 2.5,1 4.6,2.7 4.6,6.1 0,4.8 -4,7.3 -9.7,7.3 -4.9,0 -8.3,-1.9 -10.2,-4.2 z"
   id="path6" />
	<path
   class="st1"
   d="m 64.4,22.8 v 3.6 H 59 v 15 h -3.9 v -15 h -5.4 v -3.6 z"
   id="path8" />
	<path
   class="st1"
   d="m 74.9,22.8 c 4,0 6.7,2 6.7,5.9 0,2.8 -1.4,4.6 -3.6,5.4 l 4.5,7.4 h -4.4 l -4,-6.9 h -3 v 6.9 H 67.2 V 22.8 Z M 71,31.2 h 4 c 1.7,0 2.9,-0.8 2.9,-2.5 0,-1.7 -1.2,-2.4 -2.9,-2.4 h -4 z"
   id="path10" />
	<path
   class="st1"
   d="m 94.8,22.8 6.9,18.6 h -4.2 l -1.2,-3.5 h -7.2 l -1.2,3.5 h -4.1 l 6.8,-18.6 z m -4.5,11.7 h 4.8 l -2.4,-6.9 z"
   id="path12" />
	<path
   class="st1"
   d="m 106.8,22.8 v 11.7 c 0,2.3 1.5,3.5 3.4,3.5 1.9,0 3.4,-1.3 3.4,-3.5 V 22.8 h 4 v 11.7 c 0,4.8 -3.3,7.1 -7.4,7.1 -4,0 -7.3,-2.4 -7.3,-7.1 V 22.8 Z"
   id="path14" />
	<path
   class="st1"
   d="m 134.7,22.8 v 3.6 h -5.3 v 15 h -3.9 v -15 H 120 v -3.6 z"
   id="path16" />
	<path
   class="st1"
   d="m 141.5,22.8 5.4,11.8 5.4,-11.8 h 3.9 v 18.6 h -3.9 v -9.6 l -4.6,9.6 H 146 l -4.6,-9.7 v 9.7 h -3.9 V 22.8 Z"
   id="path18" />
	<path
   class="st1"
   d="m 169.2,22.8 6.9,18.6 H 172 l -1.2,-3.5 h -7.2 l -1.2,3.5 h -4.1 l 6.8,-18.6 z m -4.4,11.7 h 4.8 l -2.4,-6.9 z"
   id="path20" />
	<path
   class="st1"
   d="m 182.5,22.8 7.2,11.4 V 22.8 h 3.9 V 41.4 H 190 l -7.5,-11.3 v 11.3 h -3.9 V 22.8 Z"
   id="path22" />
	<path
   class="st1"
   d="m 201.6,22.8 7.2,11.4 V 22.8 h 3.9 v 18.6 h -3.6 l -7.5,-11.3 v 11.3 h -3.9 V 22.8 Z"
   id="path24" />
</g>
</svg>
